<?xml version="1.0" standalone="no"?>
<!DOCTYPE svg PUBLIC "-//W3C//DTD SVG 20010904//EN"
 "http://www.w3.org/TR/2001/REC-SVG-20010904/DTD/svg10.dtd">
<svg version="1.0" xmlns="http://www.w3.org/2000/svg"
 width="800.000000pt" height="800.000000pt" viewBox="0 0 800.000000 800.000000"
 preserveAspectRatio="xMidYMid meet">
<metadata>
Created by potrace 1.11, written by Peter Selinger 2001-2013
</metadata>
<g transform="translate(0.000000,800.000000) scale(0.100000,-0.100000)"
fill="#000000" stroke="none">
<path d="M1827 7130 c-100 -173 -187 -324 -193 -335 -6 -11 -35 -60 -64 -110
-28 -49 -62 -108 -75 -130 -12 -22 -73 -128 -135 -235 -160 -276 -247 -426
-329 -570 -39 -69 -75 -132 -81 -140 -8 -13 -75 -128 -130 -225 -31 -54 -199
-345 -370 -640 -92 -159 -228 -395 -302 -523 l-135 -234 49 -86 c27 -48 53
-94 58 -102 11 -17 126 -217 164 -283 13 -23 56 -98 96 -167 40 -69 81 -141
92 -160 11 -19 24 -39 28 -45 4 -5 21 -35 37 -65 17 -30 71 -125 120 -210 50
-85 159 -274 243 -420 84 -146 176 -305 205 -355 29 -49 188 -324 353 -610
165 -286 309 -536 321 -555 11 -19 25 -44 30 -55 6 -11 52 -92 104 -180 l93
-160 1999 0 1999 0 128 220 c70 121 134 231 141 245 8 14 88 153 179 310 91
157 173 299 182 315 9 17 26 45 37 64 20 33 153 263 191 331 11 19 32 55 46
80 14 25 32 53 41 64 9 10 14 19 12 20 -3 0 27 55 66 121 39 66 122 210 185
320 64 110 139 241 168 290 29 50 62 108 75 130 38 68 281 488 304 525 11 19
24 41 27 49 4 7 53 93 110 190 l102 176 -31 55 c-16 30 -69 123 -117 205 -309
532 -380 656 -380 665 0 5 -4 10 -10 10 -5 0 -10 4 -10 9 0 8 -106 194 -265
466 -60 102 -322 557 -343 595 -13 24 -57 100 -97 168 -39 66 -277 478 -304
527 -16 28 -86 149 -156 270 -71 121 -137 236 -148 255 -10 19 -45 80 -77 135
l-59 100 -1996 0 -1996 0 -182 -315z"/>
</g>
</svg>
