<?xml version="1.0" encoding="UTF-8"?>
<svg width="300mm" height="300mm" version="1.1" viewBox="0 0 300 300" xmlns="http://www.w3.org/2000/svg" xmlns:cc="http://creativecommons.org/ns#" xmlns:dc="http://purl.org/dc/elements/1.1/" xmlns:rdf="http://www.w3.org/1999/02/22-rdf-syntax-ns#">
 <metadata>
  <rdf:RDF>
   <cc:Work rdf:about="">
    <dc:format>image/svg+xml</dc:format>
    <dc:type rdf:resource="http://purl.org/dc/dcmitype/StillImage"/>
    <dc:title/>
   </cc:Work>
  </rdf:RDF>
 </metadata>
 <g display="none">
  <path transform="scale(.26458)" d="m747.67 55.607a463.2 496.47 0 0 1 283.33 457.51 463.2 496.47 0 0 1-463.2 496.47 463.2 496.47 0 0 1-463.2-496.47 463.2 496.47 0 0 1 274.56-453.44 519.99 534.88 0 0 0-330.52 498.11 519.99 534.88 0 0 0 519.99 534.88 519.99 534.88 0 0 0 519.99-534.88 519.99 534.88 0 0 0-340.96-502.18z" fill="#3f3" stroke-width="0"/>
  <path transform="scale(.26458)" d="m200.65 274.05 321.17 586.7 40.275-71.508-237.79-425.85-52.734-89.346zm83.051 0 37.314 63.211h506.42l-0.0723 0.13086h74.459l34.674-63.342zm537.83 73.787-252.96 453.01-0.51172-0.91602-40.334 71.615 40.846 74.615 327.53-598.33z" fill="#3f3" stroke-width="1.0316"/>
 </g>
 <g display="none" fill="#800000" fill-opacity=".68628" stroke-width="0">
  <path transform="scale(.26458)" d="m428.03 60.131a522 522 0 0 0-381.46 502.73 522 522 0 0 0 522 522 522 522 0 0 0 522-522 522 522 0 0 0-362.1-496.91 464.71 464.71 0 0 1 305.97 436.76 464.71 464.71 0 0 1-464.71 464.71 464.71 464.71 0 0 1-464.71-464.71 464.71 464.71 0 0 1 323-442.58z" style="paint-order:normal"/>
  <path transform="scale(.26458)" d="m184.57 275.35 306.1 532.76 60.701-107.32-188.84-328.67h0.0371l-55.885-96.51zm157.09 0.33007 55.889 96.51 331.81 0.69531v-0.11719h173.29l55.576-95.797zm417.4 127.32-180.61 311.31-70.281 124.26 61.822 107.6 315.12-543.17z" style="paint-order:normal"/>
 </g>
 <g fill="#3f3" stroke-width="0">
  <path d="m165.52 1.124a126.18 128.18 0 0 1 111.18 127.27 126.18 128.18 0 0 1-126.18 128.18 126.18 128.18 0 0 1-126.18-128.18 126.18 128.18 0 0 1 109.58-127.07 148.25 149.09 0 0 0-131.5 148.14 148.25 149.09 0 0 0 148.25 149.09 148.25 149.09 0 0 0 148.25-149.09 148.25 149.09 0 0 0-133.4-148.34z" style="paint-order:normal"/>
  <path d="m43.329 65.219 83.015 146.07 18.121-32.135-32.654-57.459-0.0244 0.0145-32.206-56.495zm48.291 0 18.527 32.5h77.3v-0.0093h51.476l18.465-32.491zm105.09 43.073-38.781 68.239 0.0183 0.0108-25.577 45.356 17.988 31.651 82.551-145.26z" style="paint-order:normal"/>
 </g>
 <animate attributeType="XML" attributeName="opacity" values="0.5;1;0.5" dur="6s" repeatCount="indefinite"/>
</svg>
