<?xml version="1.0" encoding="UTF-8" standalone="no"?>
<svg
   xmlns:dc="http://purl.org/dc/elements/1.1/"
   xmlns:cc="http://creativecommons.org/ns#"
   xmlns:rdf="http://www.w3.org/1999/02/22-rdf-syntax-ns#"
   xmlns:svg="http://www.w3.org/2000/svg"
   xmlns="http://www.w3.org/2000/svg"
   width="12in"
   height="12in"
   viewBox="0 0 304.8 304.8"
   version="1.1"
   id="svg8">
  <defs
     id="defs2" />
  <metadata
     id="metadata5">
    <rdf:RDF>
      <cc:Work
         rdf:about="">
        <dc:format>image/svg+xml</dc:format>
        <dc:type
           rdf:resource="http://purl.org/dc/dcmitype/StillImage" />
        <dc:title></dc:title>
      </cc:Work>
    </rdf:RDF>
  </metadata>
  <g
     id="layer1"
     style="display:inline"
  >
    <g
       fill="#33ff33"
       stroke-width="0"
       id="g1085"
       transform="translate(3.026149,5.2870996)">
      <path
         d="M 165.52,1.124 A 126.18,128.18 0 0 1 276.7,128.394 126.18,128.18 0 0 1 150.52,256.574 126.18,128.18 0 0 1 24.34,128.394 126.18,128.18 0 0 1 133.92,1.324 148.25,149.09 0 0 0 2.42,149.464 148.25,149.09 0 0 0 150.67,298.554 148.25,149.09 0 0 0 298.92,149.464 148.25,149.09 0 0 0 165.52,1.124 Z"
         style="filter:url(#glow);paint-order:normal;fill:#33ff33;fill-opacity:1"
         id="path1081" />
         <filter filterUnits="userSpaceOnUse" id="glow"><feGaussianBlur in="SourceGraphic" stdDeviation="3"></feGaussianBlur></filter>
    </g>
  </g>
  <g
     id="layer3"
     style="display:inline"
>
    <g
       id="g935"
       transform="matrix(0.86533992,0,0,-0.86533992,64.487307,320.12405)"
    >
      <path
         style="filter:url(#glow2);;paint-order:normal;fill:#33ff3366;fill-opacity:1"
         d="M 148.86592,304.75127 C 126.6971,303.10943 106.86645,293.57089 86.467417,274.73758 66.749427,256.53305 52.728547,232.53907 48.628614,209.9839 c -0.372409,-2.04875 -0.372409,-2.04875 0.596442,-2.92405 2.344735,-2.11833 11.020679,-7.2688 11.76386,-6.98362 0.167806,0.0644 0.460504,1.10469 0.650435,2.31177 0.509961,3.24094 2.277864,10.06827 3.627229,14.00772 3.189552,9.31184 8.524592,19.92176 14.076415,27.99408 12.868453,18.71067 29.547535,33.34373 44.684605,39.20315 12.12971,4.69529 24.70884,6.87899 39.65499,6.88398 16.5658,0.006 32.05745,-3.05891 44.36012,-8.77497 2.39937,-1.1148 2.39937,-1.1148 2.23168,-2.58372 -0.0922,-0.8079 -0.46971,-3.07626 -0.83886,-5.04079 -3.91888,-20.85525 -12.67212,-38.23508 -27.68096,-54.96142 -2.71459,-3.02522 -11.13269,-11.4855 -13.8705,-13.94 -1.34201,-1.20314 -1.35277,-1.22529 -1.14241,-2.35133 0.38003,-2.03418 1.30655,-10.395 1.30655,-11.79013 0,-0.74757 0.11772,-1.35921 0.26159,-1.35921 0.66096,0 9.88297,6.93143 14.51523,10.90992 4.36386,3.74795 7.43222,6.67448 10.98007,10.47253 14.51018,15.53346 23.60673,33.41428 27.82015,54.68526 1.29298,6.52743 2.50683,16.72406 2.51237,21.10441 0.003,2.14841 0.53069,1.73009 -6.87691,5.44868 -12.95687,6.50429 -26.44366,10.41711 -41.68993,12.09517 -4.61143,0.50755 -21.61691,0.73675 -26.70486,0.35994 z M 31.655506,304.57611 c -3.131894,-0.11571 -9.845921,-0.85359 -14.155208,-1.55568 -12.1380227,-1.97759 -21.3414971,-5.22623 -29.038021,-10.24983 -2.447396,-1.59744 -2.447396,-1.59744 -2.439678,-3.33228 0.04859,-10.92162 3.07559,-27.61401 7.2236633,-39.83483 9.325255,-27.47353 27.4964647,-49.91976 51.6088807,-63.75056 19.081604,-10.94514 43.540412,-16.51972 65.646197,-14.96188 10.74065,0.75691 22.42428,3.04063 30.29479,5.9215 1.71979,0.6295 1.71979,0.6295 1.96267,2.0271 0.17044,0.98074 0.1053,2.98269 -0.2184,6.71197 -0.62679,7.22101 -0.36223,6.61859 -2.48414,5.65647 -6.48239,-2.93926 -14.99511,-5.12934 -23.6018,-6.07208 -3.80879,-0.41719 -14.7455,-0.40293 -18.785412,0.0245 -16.692819,1.76616 -31.587401,6.25691 -45.772917,13.80063 -9.104371,4.84162 -15.490031,9.59675 -22.231276,16.55468 -13.89929,14.34605 -23.8901207,33.52845 -28.68993254,55.08469 -0.86721553,3.89471 -1.99529146,10.22165 -1.99540626,11.19146 -6.54e-5,0.55342 4.0765825,2.67533 8.0146559,4.17165 2.9978512,1.13907 8.5120829,2.67519 12.0103959,3.34579 20.574614,3.94394 46.855441,1.74072 64.403001,-5.39914 2.516156,-1.0238 2.516156,-1.0238 3.560173,-0.12496 1.782821,1.5349 7.027995,4.92587 9.314352,6.02167 1.199388,0.57484 2.180704,1.12907 2.180704,1.23162 0,0.5851 -7.200715,4.20346 -11.813355,5.93621 -15.401192,5.78551 -34.117957,8.37255 -54.993937,7.6013 z m 86.228464,-29.00054 c -0.85899,-0.6237 -2.94846,-2.11787 -4.64328,-3.32039 -1.69481,-1.20251 -3.36168,-2.48475 -3.70416,-2.84942 -0.72765,-0.7748 -1.1585,-0.30168 4.41966,-4.85331 8.92102,-7.27933 14.8298,-14.82142 21.03944,-26.85521 6.80159,-13.18095 11.30223,-27.79285 13.36515,-43.39167 0.57429,-4.34253 0.65747,-16.03063 0.14592,-20.50521 -2.10937,-18.45107 -9.54382,-36.48622 -21.48612,-52.12291 -6.6895,-8.75893 -19.97733,-22.225003 -21.93081,-22.225003 -0.90929,0 -7.379812,4.952643 -13.079361,10.011163 -4.728855,4.197 -9.659154,10.20952 -14.181786,17.29475 -2.559692,4.01006 -7.276586,13.22494 -8.978828,17.54096 -3.362045,8.52444 -6.105136,18.12055 -8.213659,28.73369 -0.294349,1.4816 -0.294349,1.4816 -1.80477,1.81962 -2.417998,0.54112 -8.170503,2.58731 -10.972972,3.90312 -1.420392,0.6669 -2.628564,1.16421 -2.684831,1.10514 -0.174916,-0.18363 1.113708,-8.37412 1.973387,-12.54282 4.77289,-23.14443 13.223687,-41.74447 26.146014,-57.54687 4.528701,-5.53804 11.797538,-12.575555 17.960658,-17.389079 3.050669,-2.382637 11.095038,-7.864983 11.928718,-8.129583 1.05322,-0.334277 9.54111,4.898227 15.65337,9.649784 20.70571,16.096218 35.73405,40.043738 41.50617,66.139708 5.79002,26.17687 1.99588,55.278 -10.40048,79.77188 -4.15617,8.21214 -8.94757,15.4912 -14.52398,22.0647 -3.75319,4.42429 -10.62161,10.89901 -14.88761,14.03426 -1.08404,0.7967 -1.08404,0.7967 -2.64584,-0.3373 z"
         id="path949" />
      <path
         style="filter:url(#glow2);;paint-order:normal;fill:#33ff3366;fill-opacity:1"
         d="m 149.55284,304.7629 c -13.79233,-0.94152 -26.09067,-4.69512 -38.52233,-11.75748 -23.394166,-13.2901 -44.761024,-36.70371 -55.302371,-60.59985 -3.159141,-7.16144 -6.068737,-16.43375 -7.048082,-22.46084 -0.339267,-2.08792 -0.339267,-2.08792 0.700238,-2.9865 2.454434,-2.1217 11.265308,-7.29867 11.693348,-6.87063 0.07575,0.0757 0.308163,1.12749 0.516483,2.33722 0.615294,3.57304 2.345182,10.11369 3.800705,14.37034 8.08297,23.6385 25.529611,46.39375 46.301129,60.38948 10.4008,7.00799 24.67926,11.48759 41.19859,12.92527 6.16448,0.53649 19.1435,0.3937 24.68266,-0.27156 11.47606,-1.37829 22.21042,-4.24528 30.49323,-8.14427 2.72866,-1.28447 2.60477,-0.81931 1.65715,-6.22163 -3.08411,-17.58235 -9.53656,-32.59854 -20.15435,-46.90333 -4.69703,-6.32807 -11.50476,-13.87317 -18.21373,-20.18655 -2.47386,-2.32798 -4.53245,-4.37321 -4.57464,-4.54495 -0.0422,-0.17175 0.16948,-2.14859 0.47039,-4.39299 0.30091,-2.2444 0.62151,-5.36065 0.71245,-6.92499 0.091,-1.56435 0.26876,-2.84428 0.39514,-2.84428 0.2809,0 5.94533,4.09531 9.43626,6.82229 6.16172,4.81329 13.60167,11.78334 18.41809,17.2548 11.2126,12.73755 18.88224,27.01647 23.44442,43.64752 2.29682,8.37289 4.48226,22.96368 4.48226,29.92519 0,1.26461 0,1.26461 -2.37289,2.62251 -3.46069,1.9804 -9.36316,4.74581 -14.32287,6.71052 -9.82835,3.89335 -20.23537,6.38914 -32.25216,7.73468 -4.44753,0.49799 -20.3933,0.72812 -25.63912,0.37003 z M 31.117381,304.50773 c -17.885159,-1.07421 -32.9033285,-5.23567 -42.941811,-11.89895 -2.208139,-1.46571 -2.208139,-1.46571 -2.038408,-5.16987 0.678359,-14.80429 4.0075902,-30.35717 9.4299608,-44.05313 1.8317855,-4.62677 6.2343768,-13.46403 8.9439755,-17.95312 C 14.558774,208.78631 28.922477,194.82469 45.622683,185.4719 61.059914,176.82644 78.219707,171.97355 97.30088,170.857 c 13.73953,-0.80397 30.04016,1.39548 42.96608,5.79742 2.24896,0.76589 2.24896,0.76589 2.44423,2.06477 0.2654,1.76535 -0.52912,12.56884 -0.95571,12.99544 -0.0845,0.0845 -1.01951,-0.23427 -2.07784,-0.70835 -6.32998,-2.83551 -14.09348,-4.8335 -22.8263,-5.87452 -3.6861,-0.43941 -15.35623,-0.43061 -19.446876,0.0147 -21.991235,2.39378 -42.460703,10.05291 -58.158824,21.76148 -4.276437,3.18962 -11.912706,10.66967 -15.495905,15.17892 -11.614188,14.61576 -19.555884,32.02167 -23.41967012,51.32917 -1.04795902,5.23669 -1.49600738,8.56064 -1.19383148,8.8567 0.48487303,0.47507 5.6049751,2.88837 8.0736408,3.80542 13.8460798,5.14349 33.3563618,6.57475 52.7560488,3.87014 8.782121,-1.22436 16.015623,-3.12062 24.777835,-6.49549 1.229921,-0.47372 1.229921,-0.47372 2.530178,0.61492 2.075543,1.73774 6.125475,4.33103 8.758714,5.60846 1.336582,0.6484 2.430148,1.25077 2.430148,1.33861 0,0.3231 -4.356987,2.73812 -7.421444,4.1136 -10.363782,4.6518 -23.918394,7.81582 -39.012931,9.10669 -4.461418,0.38154 -16.487654,0.53837 -20.911042,0.27269 z m 84.146239,-30.82924 c -4.28535,-3.00216 -6.21749,-4.52039 -6.21749,-4.88556 0,-0.1271 1.09682,-1.09629 2.43738,-2.15375 4.11444,-3.24556 8.63246,-7.35601 10.96494,-9.9758 11.58941,-13.01693 21.62709,-35.61596 25.05591,-56.41132 1.19219,-7.2305 1.34,-9.1001 1.33817,-16.9267 -0.002,-7.82726 -0.22169,-10.40471 -1.45573,-17.06562 -2.79837,-15.10465 -9.78485,-30.58282 -19.82482,-43.92083 -6.66054,-8.84849 -20.37639,-22.886463 -22.36128,-22.886463 -1.68994,0 -14.128614,10.238583 -18.388906,15.136373 -12.539485,14.41585 -20.74231,32.27549 -25.66117,55.87092 -0.420886,2.01895 -0.83039,3.73597 -0.910014,3.81559 -0.07962,0.0796 -1.493287,0.53239 -3.141482,1.00616 -3.260926,0.93735 -7.220204,2.44366 -10.033003,3.81707 -0.983014,0.47998 -1.835436,0.8237 -1.894271,0.76381 -0.178731,-0.18192 1.341856,-9.34682 2.343819,-14.1267 7.175778,-34.23213 24.333822,-60.75545 50.625746,-78.258503 5.786441,-3.852151 4.973631,-3.621234 7.650981,-2.173613 12.03081,6.504942 24.31464,17.290646 33.45624,29.375946 11.63576,15.38261 19.26876,33.19486 22.31615,52.07664 4.21157,26.09512 -1.20853,55.35151 -14.53971,78.48173 -4.88695,8.47909 -9.97425,15.13774 -16.80047,21.98976 -4.21189,4.2278 -10.01979,9.23107 -10.71562,9.23107 -0.15226,0 -2.06268,-1.2511 -4.24537,-2.78021 z"
         id="path947" />
      <path
         style="filter:url(#glow2);;paint-order:normal;fill:#33ff3366;fill-opacity:1"
         d="M 149.79196,304.7539 C 131.21175,303.52206 114.48772,296.89797 97.669048,284.10893 76.182206,267.77017 59.96969,246.06005 52.189051,223.20684 c -1.438471,-4.22507 -2.943664,-9.92847 -3.499665,-13.26079 -0.348154,-2.08661 -0.348154,-2.08661 0.5694,-2.86652 2.415391,-2.05307 11.402956,-7.40383 11.788489,-7.0183 0.06182,0.0618 0.340333,1.35193 0.618926,2.86691 4.489561,24.41424 20.127217,50.12215 41.209669,67.74766 2.90492,2.42859 7.75339,5.94953 10.74114,7.80017 23.91876,14.81553 66.74377,16.23583 94.74973,3.1424 2.08624,-0.97536 2.08624,-0.97536 1.91848,-2.73679 -0.0923,-0.96878 -0.58464,-3.82028 -1.09418,-6.33667 -5.14449,-25.40643 -16.95992,-44.91102 -40.31234,-66.5465 -2.21223,-2.04958 -2.21223,-2.04958 -1.9113,-4.1076 0.54649,-3.73748 1.07041,-8.88183 1.07565,-10.5618 0.003,-0.9095 0.10954,-1.65365 0.23711,-1.65365 0.62572,0 9.84047,6.97708 14.9816,11.34352 3.72804,3.16629 11.74319,11.24237 14.73818,14.85023 16.01927,19.29728 24.47018,41.86395 26.02396,69.49241 0.18077,3.21428 0.18077,3.21428 -1.76986,4.30649 -14.15991,7.92853 -30.16995,12.89468 -47.45895,14.7213 -4.71228,0.49786 -19.69716,0.71636 -25.00313,0.36459 z M 31.920089,304.50882 c -18.410102,-1.01936 -33.8604608,-5.23859 -43.634868,-11.91593 -2.138048,-1.46059 -2.138048,-1.46059 -2.08348,-4.49791 0.144414,-8.03825 1.916036,-20.00429 4.3473694,-29.36336 0.4347453,-1.67349 1.5407831,-5.3049 2.4578617,-8.0698 13.1660813,-39.69435 43.4880669,-67.7289 83.1087869,-76.83921 17.243901,-3.96503 34.821871,-4.09779 52.244951,-0.39458 3.60107,0.76539 9.94715,2.52899 12.48441,3.46946 1.80309,0.66835 1.80309,0.66835 1.80309,3.91673 0,2.89146 -0.63836,10.64603 -0.89773,10.90541 -0.0551,0.0551 -1.34425,-0.4311 -2.8647,-1.08052 -6.05454,-2.58605 -14.46727,-4.71625 -21.76986,-5.51239 -4.72626,-0.51527 -16.52722,-0.43422 -21.298956,0.14627 -18.299895,2.22624 -35.707687,8.17978 -50.006064,17.10228 -18.506446,11.54844 -32.86151,30.64277 -41.0755964,54.63655 -2.4973093,7.29478 -5.12309934,18.19821 -5.64733153,23.4502 -0.17511337,1.75437 -0.17511337,1.75437 1.60935776,2.7523 6.96359997,3.89427 18.57273417,6.85248 30.54804317,7.78418 4.563179,0.35502 14.758096,0.35602 19.3411,0.002 12.138088,-0.93791 23.3925,-3.30368 32.176511,-6.76378 1.624319,-0.63979 3.024986,-1.16329 3.112592,-1.16329 0.0876,0 0.842209,0.55802 1.676898,1.24004 2.316681,1.89295 6.746843,4.69879 8.942382,5.66366 1.082368,0.47567 1.967942,0.93766 1.967942,1.02664 0,0.21221 -2.751656,1.79659 -5.471301,3.15033 -10.381186,5.16737 -25.763897,8.89473 -41.624533,10.08598 -5.179822,0.38904 -14.859664,0.52289 -19.446875,0.26889 z m 83.831691,-30.5124 c -4.13627,-2.89056 -6.70565,-4.86593 -6.70565,-5.15537 0,-0.11542 1.69664,-1.57262 3.77031,-3.23822 9.96086,-8.0007 16.38104,-16.17584 22.79833,-29.03027 6.47373,-12.96749 10.8588,-27.31437 12.74407,-41.69551 0.57105,-4.35604 0.77407,-13.85471 0.39604,-18.52946 -1.35127,-16.70986 -7.03485,-32.83762 -16.88863,-47.92327 -4.76458,-7.29433 -9.64458,-13.12945 -18.05762,-21.59189 -5.68549,-5.71888 -7.65391,-7.379983 -8.74532,-7.379983 -0.93947,0 -5.543851,3.444673 -11.759887,8.797923 -3.517662,3.0294 -6.250708,5.86263 -9.074457,9.40709 -11.145772,13.9905 -18.619592,31.01614 -23.062451,52.53711 -0.446776,2.16415 -0.864482,4.01923 -0.928233,4.12238 -0.06375,0.10315 -0.805958,0.3418 -1.649346,0.53032 -2.285392,0.51085 -7.157744,2.2423 -10.421959,3.70357 -3.429341,1.53519 -3.202633,1.96111 -2.219238,-4.16933 2.553407,-15.91784 6.647045,-29.17776 12.962777,-41.98844 6.075119,-12.32262 12.336721,-21.11487 21.675772,-30.43611 4.404786,-4.396377 7.051461,-6.721843 11.791093,-10.360085 2.667511,-2.047638 10.736139,-7.490262 11.104219,-7.490262 0.0978,0 1.625,0.829079 3.39371,1.842399 24.38989,13.973301 43.50119,38.816288 51.61024,67.088698 3.09903,10.80484 4.40903,20.39522 4.37208,32.00745 -0.0609,19.15386 -4.30198,37.28793 -12.65412,54.10729 -5.49527,11.06623 -11.63765,19.69481 -19.98234,28.0704 -4.02922,4.04415 -10.0896,9.25622 -10.72173,9.22097 -0.14677,-0.008 -1.83322,-1.10952 -3.74766,-2.4474 z"
         id="path945" />
      <path
         style="filter:url(#glow2);;paint-order:normal;fill:#33ff3366;fill-opacity:1"
         d="m 152.83467,304.85833 c -14.4386,-0.68499 -24.98365,-3.37965 -37.23943,-9.51609 -10.99699,-5.50617 -21.094379,-12.90026 -31.383583,-22.9815 -10.966101,-10.74445 -18.916341,-21.311 -25.411102,-33.77354 -4.777515,-9.16737 -8.541954,-19.89229 -10.098548,-28.77085 -0.342178,-1.95172 -0.342178,-1.95172 0.566076,-2.71126 2.447012,-2.04633 11.400459,-7.44155 11.741213,-7.07507 0.04929,0.053 0.3438,1.43317 0.654458,3.06701 1.277572,6.71911 3.507584,14.02514 6.280788,20.57729 11.46426,27.08624 34.723718,51.78543 56.795488,60.31103 24.3491,9.40528 58.33157,8.75337 81.93405,-1.57177 3.56875,-1.56119 3.9277,-1.80275 3.81225,-2.5655 -2.08614,-13.78247 -5.12973,-23.77113 -10.54381,-34.60343 -6.69127,-13.38767 -16.14517,-25.32708 -31.31856,-39.55251 -1.9378,-1.81673 -1.9378,-1.81673 -1.52657,-4.62974 0.22618,-1.54715 0.59225,-4.70255 0.81349,-7.01199 0.22124,-2.30945 0.43476,-4.23149 0.47447,-4.27122 0.14251,-0.1425 6.83143,4.75104 10.47154,7.66086 21.2464,16.98387 34.24712,36.18081 40.79149,60.23294 2.36257,8.68302 4.08119,19.97174 4.28668,28.15693 0.0725,2.88893 0.0725,2.88893 -5.48372,5.74651 -15.36478,7.9021 -30.72921,12.0194 -49.2125,13.18779 -3.81598,0.24122 -12.27974,0.28978 -16.40417,0.0941 z M 32.840461,304.48466 c -14.105456,-0.61908 -27.1042434,-3.31382 -36.7824753,-7.62526 -2.9443913,-1.31166 -7.7119637,-4.04655 -9.2211287,-5.28965 -0.897815,-0.73952 -0.897815,-0.73952 -0.586296,-5.3456 1.0579,-15.64191 3.9756286,-29.039 9.2144482,-42.3092 16.0667128,-40.69783 50.7372068,-67.34782 94.1342468,-72.35769 17.032044,-1.96623 36.187164,0.0298 51.103444,5.32521 1.94551,0.69068 1.94551,0.69068 1.94551,3.79716 0,2.61148 -0.6664,10.80866 -0.89749,11.03975 -0.0394,0.0394 -1.13357,-0.38794 -2.43138,-0.94975 -14.03353,-6.075 -32.00257,-7.68664 -50.46342,-4.52607 -16.725667,2.86351 -33.186302,9.33799 -46.178735,18.16355 -7.655608,5.20034 -13.436933,10.67577 -19.947504,18.89207 -11.923753,15.04769 -20.3353645,35.1353 -23.56564915,56.27668 -0.37521785,2.4557 -0.37521785,2.4557 0.37638328,2.99089 0.4133805,0.29435 1.85526127,1.05302 3.20417927,1.68594 6.6802432,3.13437 14.2834276,5.15322 24.0161196,6.37693 4.5793,0.57576 18.412471,0.80684 23.764852,0.39698 12.664604,-0.96978 23.69172,-3.33794 33.286977,-7.14862 2.150785,-0.85416 2.150785,-0.85416 3.836459,0.51185 2.647272,2.14526 5.415923,3.91639 8.21496,5.25519 1.41836,0.67841 2.582945,1.293 2.587972,1.36576 0.02574,0.37253 -5.89561,3.45266 -9.606889,4.99725 -11.412283,4.74966 -26.517827,7.73916 -42.902039,8.49064 -6.280875,0.28807 -6.218193,0.28814 -13.102545,-0.014 z m 82.404029,-30.88122 c -4.53154,-3.21936 -6.19836,-4.50936 -6.19836,-4.79709 0,-0.10975 0.98227,-0.96043 2.18281,-1.8904 10.07968,-7.80796 16.28775,-15.17173 22.62546,-26.83746 7.30486,-13.44595 12.42255,-29.30494 14.51476,-44.97917 0.56258,-4.21467 0.76985,-14.63639 0.38239,-19.22707 -1.66262,-19.69934 -9.80906,-39.48354 -23.10201,-56.10481 -5.96066,-7.45309 -17.15512,-18.82238 -19.97685,-20.288814 -0.74461,-0.386971 -1.0115,-0.252999 -4.20935,2.112944 -6.871455,5.08389 -13.3652,11.127 -17.318962,16.11713 -11.468041,14.47405 -19.011574,31.97997 -23.397278,54.29697 -0.502764,2.55835 -0.159213,2.29084 -4.353052,3.38961 -1.57089,0.41157 -8.002778,2.9236 -9.74107,3.80446 -1.687864,0.85531 -1.644086,1.25753 -0.577836,-5.30917 5.632098,-34.68634 20.196085,-61.355 43.920989,-80.425351 2.773751,-2.229573 8.263887,-6.127043 11.115939,-7.891252 2.4001,-1.484637 2.4001,-1.484637 5.10093,0.02446 24.19406,13.518452 43.72005,38.535163 52.01246,66.638393 5.28133,17.89859 6.08629,36.54172 2.40713,55.74974 -4.54547,23.73083 -15.85532,45.34325 -31.69196,60.56139 -3.27173,3.14395 -8.76257,7.72293 -9.39359,7.83361 -0.17295,0.0303 -2.1091,-1.21982 -4.30255,-2.77812 z"
         id="path943" />
      <path
         style="filter:url(#glow2);;paint-order:normal;fill:#33ff3366;fill-opacity:1"
         d="m 153.49613,304.87307 c -7.27083,-0.35356 -13.5698,-1.15618 -18.52083,-2.35994 -17.76028,-4.31815 -34.60794,-14.35845 -51.031804,-30.41222 -18.274525,-17.86273 -30.81919,-39.77132 -34.973011,-61.07851 -0.609592,-3.12693 -0.609592,-3.12693 0.165841,-3.77533 1.579742,-1.32094 6.677826,-4.59189 9.237297,-5.92668 2.641037,-1.37733 2.641037,-1.37733 3.33615,2.15393 4.230693,21.49243 16.011755,42.75827 33.177086,59.8875 9.006421,8.98748 17.875991,15.45398 26.330101,19.19635 23.44695,10.37924 57.70614,10.84363 82.41771,1.11719 2.92889,-1.1528 6.54359,-2.76511 6.93633,-3.0939 0.0314,-0.0263 -0.16598,-1.47072 -0.43871,-3.20979 -2.95135,-18.81914 -9.81406,-34.85698 -21.43624,-50.09553 -4.1916,-5.49586 -7.62168,-9.29967 -14.85565,-16.47426 -7.10997,-7.0516 -7.10997,-7.0516 -6.71407,-9.65729 0.34978,-2.30218 1.18647,-10.1497 1.18647,-11.12821 0,-0.39955 1.63564,0.69818 6.61458,4.43925 17.39509,13.07031 29.38232,27.07864 37.45559,43.77078 6.63699,13.72251 10.24499,28.15265 11.50009,45.99445 0.27718,3.94018 0.266,4.21163 -0.18722,4.54785 -1.09621,0.81318 -10.53681,5.46358 -13.97575,6.88439 -10.93618,4.51831 -23.09982,7.50688 -35.45417,8.71098 -4.08578,0.39822 -16.69375,0.70719 -20.76979,0.50899 z M 33.904464,304.47324 c -15.792974,-0.56423 -29.6508799,-3.5648 -39.8197913,-8.62192 -3.4226921,-1.70215 -8.0697917,-4.71431 -8.0697917,-5.23069 0,-1.31377 0.610977,-9.07796 0.947862,-12.04526 6.1522865,-54.18973 41.287888,-94.66929 91.25943,-105.13957 8.260355,-1.73075 13.384522,-2.29163 22.520897,-2.46512 14.26465,-0.27086 26.06921,1.41065 38.664,5.50752 3.24114,1.05429 3.24114,1.05429 3.23588,4.14916 -0.003,1.70219 -0.17912,4.70222 -0.39161,6.66675 -0.2125,1.96454 -0.38872,3.79298 -0.39162,4.06321 -0.003,0.29446 -0.13777,0.43208 -0.33598,0.34346 -11.03662,-4.93444 -21.23437,-7.0345 -34.22105,-7.04727 -26.637172,-0.0262 -55.924751,10.64295 -73.795101,26.88276 -4.778827,4.3428 -10.273339,10.6719 -14.327417,16.50368 -10.0748199,14.4926 -16.8578579,31.77856 -19.92846491,50.78587 -0.41891029,2.59309 -0.46221099,3.34267 -0.2036871,3.52601 0.18057548,0.12807 1.75706934,0.93055 3.50331931,1.78329 6.374243,3.11273 13.8264687,5.17015 22.9397477,6.33321 18.957849,2.41947 41.432827,0.0258 57.054285,-6.07658 3.327148,-1.29971 3.327148,-1.29971 5.322808,0.24245 2.810978,2.17219 5.394277,3.79983 8.192302,5.16166 2.410375,1.17315 2.410375,1.17315 1.678741,1.68657 -1.399008,0.98176 -4.71942,2.68489 -7.860199,4.03172 -12.030258,5.1588 -28.373001,8.46816 -43.803726,8.87013 -2.983177,0.0777 -5.781146,0.17099 -6.217709,0.20729 -0.436562,0.0363 -3.115468,-0.0169 -5.953125,-0.11833 z m 82.549996,-30.03932 c -4.82267,-3.4244 -7.43844,-5.42693 -7.3559,-5.63138 0.0439,-0.1088 1.61543,-1.42862 3.49224,-2.93293 4.40659,-3.532 9.44805,-8.41474 12.14597,-11.76358 10.52343,-13.06237 19.44229,-33.93158 22.78829,-53.32221 1.89696,-10.99323 1.99547,-22.93159 0.27122,-32.86946 -2.78027,-16.02438 -9.7688,-31.86367 -20.11272,-45.58491 -5.98515,-7.93931 -17.8601,-20.39282 -21.48254,-22.529189 -1.12533,-0.66367 -1.12533,-0.66367 -2.0605,-0.111905 -2.59011,1.528204 -11.138079,8.482994 -14.54219,11.831804 -9.813756,9.65433 -18.81052,25.289 -24.191121,42.03958 -1.401609,4.36341 -3.861301,14.02222 -4.660969,18.30287 -0.453549,2.42787 -0.453549,2.42787 -2.601309,3.00645 -3.234257,0.87128 -7.123478,2.29277 -10.151404,3.71029 -2.019462,0.94541 -2.711979,1.16846 -2.711979,0.87348 0,-0.86551 1.127006,-7.62682 2.000628,-12.00247 7.272491,-36.42527 25.015494,-63.45732 53.619614,-81.691264 2.57128,-1.639085 2.57128,-1.639085 5.66912,0.09433 11.8471,6.629095 23.49673,16.962414 32.61382,28.928734 13.01612,17.08385 21.08081,37.61231 23.18554,59.0182 0.82273,8.36743 0.43877,20.45677 -0.93429,29.417 -4.48541,29.27064 -19.29969,55.89836 -39.91563,71.74578 -1.07006,0.82256 -2.02256,1.48383 -2.11667,1.4695 -0.0941,-0.0143 -1.42125,-0.91376 -2.94922,-1.99872 z"
         id="path941" />
      <path
         style="filter:url(#glow2);;paint-order:normal;fill:#33ff3366;fill-opacity:1"
         d="m 152.17321,304.76725 c -15.75118,-0.80543 -28.4758,-4.54689 -41.81017,-12.29357 -26.446777,-15.36442 -48.742056,-41.90523 -58.016313,-69.06394 -1.998199,-5.85153 -4.232899,-15.34947 -3.696986,-15.71298 0.131374,-0.0891 0.967653,-0.72881 1.858394,-1.42154 2.665939,-2.07332 9.439838,-6.01652 10.335583,-6.01652 0.125444,0 0.375322,0.8632 0.555281,1.91823 0.601644,3.52718 2.164188,9.54959 3.586834,13.82448 8.032282,24.13612 25.975665,47.6335 46.970717,61.50952 10.05924,6.64834 23.07572,10.84074 39.15833,12.61228 5.12094,0.56409 18.88403,0.64464 23.8125,0.13938 12.86461,-1.31886 24.00839,-4.1571 33.13906,-8.44027 1.41883,-0.66557 2.57969,-1.34411 2.57969,-1.50787 0,-1.11346 -1.81951,-10.31498 -2.77522,-14.03468 -3.0234,-11.76729 -7.49798,-21.83279 -14.34203,-32.26219 -5.18008,-7.89374 -9.732,-13.28724 -19.15358,-22.69476 -7.60033,-7.589 -7.60033,-7.589 -7.22702,-10.05417 0.35415,-2.3386 1.16452,-10.06704 1.16452,-11.10593 0,-0.39141 0.37331,-0.2217 1.91823,0.87204 19.853,14.05518 33.09885,28.82017 41.86149,46.66248 5.588,11.37821 8.97764,23.00183 10.87477,37.29137 0.3642,2.74324 1.23426,13.42436 1.10113,13.51791 -0.72839,0.51188 -6.3863,3.49914 -8.77234,4.63161 -13.32227,6.32303 -27.39598,10.04486 -42.88224,11.34031 -4.69729,0.39294 -15.25748,0.54362 -20.24063,0.28881 z M 27.554464,304.0942 c -16.316337,-1.38049 -30.0051401,-5.40193 -39.103351,-11.48763 -1.339928,-0.89626 -2.435314,-1.71126 -2.434192,-1.81112 0.01605,-1.42757 0.890717,-11.7131 1.192969,-14.02846 2.002971,-15.34346 5.7962839,-28.35152 12.01191494,-41.19136 C 7.1355692,219.22791 17.28652,206.44413 31.221174,195.27666 c 3.260691,-2.61317 9.865614,-7.09863 13.398915,-9.09932 17.755627,-10.05388 37.767919,-15.28524 58.472921,-15.28524 12.74735,0 24.86603,1.88063 36.22015,5.62083 3.41182,1.12389 3.41182,1.12389 3.22438,5.62181 -0.10309,2.47385 -0.32872,5.65179 -0.5014,7.06207 -0.31397,2.56416 -0.31397,2.56416 -2.40354,1.64116 -6.53874,-2.88826 -14.53801,-4.92272 -22.74386,-5.78446 -4.93517,-0.51826 -14.20368,-0.52371 -19.507927,-0.0114 -21.988235,2.12347 -44.34885,10.75052 -60.069256,23.17561 -3.61397,2.8564 -10.292948,9.59917 -13.606912,13.73686 -9.922235,12.38854 -16.8832849,26.2338 -21.4008853,42.56552 -1.62060254,5.8587 -3.8313148,17.15316 -3.4714347,17.73546 0.23551758,0.38108 5.9977923,3.10674 8.6442569,4.0889 14.2176001,5.27643 35.6855661,6.56489 55.2674661,3.31702 7.334072,-1.21643 15.316509,-3.35994 20.605149,-5.53305 2.481194,-1.01952 2.481194,-1.01952 5.027083,0.90732 2.86828,2.17083 5.403409,3.74344 8.036658,4.98534 0.984353,0.46424 1.754267,0.95048 1.710918,1.08053 -0.113678,0.34103 -4.417682,2.69335 -7.201683,3.93603 -11.043672,4.92949 -24.865434,8.02912 -41.010417,9.19686 -5.013971,0.36266 -17.326152,0.28541 -22.357292,-0.14026 z m 87.943876,-30.41904 c -2.16627,-1.51763 -4.5051,-3.24596 -5.19741,-3.84073 -1.25874,-1.0814 -1.25874,-1.0814 1.98438,-3.68098 4.11925,-3.30187 7.75597,-6.62521 10.09192,-9.22231 11.60789,-12.90558 21.80575,-35.77444 25.27183,-56.67244 1.50307,-9.06243 1.86178,-18.78282 0.98126,-26.59063 -2.4174,-21.4357 -11.82156,-41.74122 -27.44765,-59.26514 -4.31881,-4.84333 -11.74514,-12.31656 -13.72404,-13.81069 -2.24346,-1.693895 -2.39078,-1.683241 -5.26904,0.38103 -3.495464,2.50692 -10.315949,8.23836 -12.987209,10.91351 -2.481186,2.48479 -6.483993,7.35903 -8.92756,10.87114 -7.379272,10.60613 -12.785331,22.56219 -16.738783,37.01953 -1.016619,3.71766 -3.17324,13.30328 -3.17324,14.10423 0,0.25857 -0.47992,0.50834 -1.389063,0.72291 -2.470089,0.58299 -7.517765,2.35724 -10.549945,3.70829 -1.626206,0.72459 -2.995819,1.27835 -3.043582,1.23059 -0.123547,-0.12355 0.861272,-6.67983 1.49856,-9.97644 1.554062,-8.03895 3.045654,-13.74872 5.529901,-21.16829 7.963275,-23.78354 21.430255,-42.72637 40.63017,-57.150938 4.028155,-3.026283 9.880761,-6.876606 10.452651,-6.876606 1.099,0 10.38175,5.835325 14.96816,9.40929 19.75031,15.390484 34.01193,37.125314 40.70067,62.028214 3.61546,13.46071 4.5597,29.17936 2.66224,44.31771 -3.60982,28.79986 -17.66464,55.95847 -37.56509,72.58832 -5.04689,4.21745 -4.23684,4.12863 -8.75913,0.96043 z"
         id="path939" />
      <path
         style="filter:url(#glow2);;paint-order:normal;fill:#33ff3366;fill-opacity:1"
         d="m 153.76071,304.74742 c -12.35497,-0.48179 -20.30538,-2.05302 -30.29479,-5.9871 -21.00601,-8.27272 -42.645531,-26.37605 -57.177464,-47.83391 -8.700114,-12.8466 -14.602219,-26.56468 -17.302922,-40.21667 -0.523412,-2.64583 -0.523412,-2.64583 0.46599,-3.54145 1.928431,-1.74562 10.399797,-6.90959 11.335028,-6.90959 0.136096,0 0.466883,1.22039 0.735084,2.71198 2.049023,11.39558 7.089624,24.30388 13.934612,35.68467 5.79153,9.62926 11.351839,16.691 19.670545,24.98214 16.741417,16.68593 31.134977,23.55985 55.458917,26.4855 5.44182,0.65453 20.43373,0.65893 26.06146,0.008 6.85356,-0.79316 13.13382,-1.99844 19.05,-3.65601 6.0478,-1.69444 14.94896,-5.36648 14.94896,-6.16697 0,-1.31018 -1.63241,-9.90785 -2.64577,-13.93486 -3.02286,-12.0126 -9.20509,-25.25116 -16.68334,-35.7255 -5.4006,-7.56431 -12.86171,-15.88058 -21.51607,-23.98215 -2.22529,-2.08316 -3.09514,-3.06361 -2.98127,-3.36036 0.22295,-0.58099 1.14515,-7.94764 1.36671,-10.91744 0.10042,-1.34607 0.23938,-2.44739 0.3088,-2.44739 0.26372,0 6.70112,4.73195 9.80772,7.20938 11.50656,9.17615 20.87642,19.25395 27.66297,29.75302 10.2353,15.83443 16.06793,34.10132 17.63971,55.24489 0.15145,2.03729 0.33174,4.30438 0.40065,5.03798 0.12528,1.33381 0.12528,1.33381 -3.64085,3.30327 -14.88702,7.78499 -27.9935,11.7923 -44.51197,13.60955 -6.01701,0.66195 -14.99953,0.92598 -22.09271,0.64938 z M 28.032897,304.09285 c -18.2713274,-1.53294 -31.7215087,-5.74389 -41.785385,-13.08207 -0.290473,-0.2118 0.491159,-10.26621 1.21701,-15.65484 2.7730122,-20.58649 9.7301317,-39.13789 20.7377556,-55.29793 6.6494934,-9.76197 15.8430204,-19.41311 25.0407284,-26.28714 16.610431,-12.41403 35.30673,-19.6724 57.282292,-22.23843 4.855699,-0.56699 15.863652,-0.78529 20.505212,-0.40665 11.21905,0.91521 21.62956,2.97749 29.76562,5.89646 1.71979,0.617 1.71979,0.617 1.80077,2.73245 0.0445,1.1635 -0.0496,3.48467 -0.20923,5.15816 -0.15961,1.67349 -0.36087,3.89008 -0.44723,4.92574 -0.15703,1.88303 -0.15703,1.88303 -2.48127,0.87496 -13.08186,-5.67392 -28.93545,-7.48954 -46.050298,-5.27389 -13.326877,1.72526 -27.238417,6.02942 -39.396074,12.18893 -10.059393,5.09645 -17.077222,10.15982 -24.222615,17.47664 -14.465753,14.81279 -24.5897144,34.44726 -29.3159673,56.85554 -1.1755075,5.57336 -1.8498092,9.70135 -1.6638587,10.18593 0.21674345,0.56482 6.2100094,3.39861 9.7133756,4.59276 5.8662584,1.99956 12.1260964,3.31186 19.9567734,4.18367 4.931312,0.54903 18.718789,0.62419 23.8125,0.12982 12.385122,-1.20204 23.913997,-3.79572 31.732712,-7.13898 1.834798,-0.78455 1.834798,-0.78455 3.571875,0.61388 2.44888,1.97146 6.345584,4.4378 8.644753,5.47152 1.075409,0.48351 1.955421,0.94718 1.95558,1.03036 5.29e-4,0.24431 -3.612229,2.23609 -6.614295,3.64665 -8.453226,3.97184 -19.635959,6.94173 -32.54375,8.64291 -8.705141,1.14729 -22.461776,1.49048 -31.006984,0.77355 z m 87.098653,-30.7228 c -4.18898,-2.92503 -5.82084,-4.21376 -5.82084,-4.59693 0,-0.098 1.33946,-1.25117 2.97657,-2.56251 6.74649,-5.40402 11.0549,-9.82776 15.13087,-15.53589 11.05412,-15.48059 19.07617,-37.30118 21.35561,-58.08894 0.49684,-4.53109 0.42841,-14.67521 -0.1303,-19.31458 -2.56043,-21.26121 -11.54723,-40.77372 -26.80879,-58.20834 -4.32352,-4.93913 -13.1349,-13.73868 -14.96176,-14.94168 -1.07145,-0.705549 -1.68794,-0.950577 -2.11666,-0.841269 -0.74344,0.189548 -5.357222,3.637909 -9.606485,7.179929 -7.393366,6.16281 -12.63159,12.31627 -18.247149,21.43532 -7.260984,11.79103 -12.325583,25.26563 -15.854807,42.18243 -0.851688,4.08243 -0.851688,4.08243 -4.253891,5.10552 -3.31207,0.99599 -8.032343,2.80844 -10.217582,3.92327 -0.594815,0.30345 -1.118674,0.51366 -1.164126,0.46713 -0.141023,-0.14437 0.889052,-6.75344 1.745159,-11.1971 4.045712,-20.99948 12.003683,-39.66892 23.289149,-54.63646 6.214261,-8.24178 13.798939,-15.798179 22.380477,-22.29705 3.048225,-2.308445 9.604455,-6.687455 10.381825,-6.934181 1.26585,-0.401765 11.93109,6.457831 18.27273,11.75252 8.20791,6.852861 15.67653,15.239731 21.80883,24.490171 3.51332,5.29976 4.82857,7.57409 7.57398,13.09687 5.85527,11.77872 9.60463,24.44422 11.23956,37.96771 0.56491,4.67267 0.79378,15.94171 0.4251,20.93088 -1.77525,24.0238 -9.83586,46.17875 -23.27706,63.97808 -5.3357,7.06573 -12.4054,14.20022 -18.82875,19.00132 -0.92604,0.69216 -0.92604,0.69216 -5.29166,-2.35622 z"
         id="path937" />
         <filter filterUnits="userSpaceOnUse" id="glow2"><feGaussianBlur in="SourceGraphic" stdDeviation="3"></feGaussianBlur></filter>
    </g>
  </g>
  <g
     id="layer1"
     style="display:inline">
    <g
       fill="#33ff33"
       stroke-width="0"
       id="g1085"
       transform="translate(3.026149,5.2870996)">
      <path
         d="M 165.52,1.124 A 126.18,128.18 0 0 1 276.7,128.394 126.18,128.18 0 0 1 150.52,256.574 126.18,128.18 0 0 1 24.34,128.394 126.18,128.18 0 0 1 133.92,1.324 148.25,149.09 0 0 0 2.42,149.464 148.25,149.09 0 0 0 150.67,298.554 148.25,149.09 0 0 0 298.92,149.464 148.25,149.09 0 0 0 165.52,1.124 Z"
         style="paint-order:normal;fill:#33ff33;fill-opacity:1"
         id="path1081" />
    </g>
  </g>
  <g
     id="layer3"
     style="display:inline">
    <g
       id="g935"
       transform="matrix(0.86533992,0,0,-0.86533992,64.487307,320.12405)"
       style="fill:#33ff33;fill-opacity:1">
      <path
         style=";paint-order:normal;fill:#33ff33;fill-opacity:1"
         d="M 148.86592,304.75127 C 126.6971,303.10943 106.86645,293.57089 86.467417,274.73758 66.749427,256.53305 52.728547,232.53907 48.628614,209.9839 c -0.372409,-2.04875 -0.372409,-2.04875 0.596442,-2.92405 2.344735,-2.11833 11.020679,-7.2688 11.76386,-6.98362 0.167806,0.0644 0.460504,1.10469 0.650435,2.31177 0.509961,3.24094 2.277864,10.06827 3.627229,14.00772 3.189552,9.31184 8.524592,19.92176 14.076415,27.99408 12.868453,18.71067 29.547535,33.34373 44.684605,39.20315 12.12971,4.69529 24.70884,6.87899 39.65499,6.88398 16.5658,0.006 32.05745,-3.05891 44.36012,-8.77497 2.39937,-1.1148 2.39937,-1.1148 2.23168,-2.58372 -0.0922,-0.8079 -0.46971,-3.07626 -0.83886,-5.04079 -3.91888,-20.85525 -12.67212,-38.23508 -27.68096,-54.96142 -2.71459,-3.02522 -11.13269,-11.4855 -13.8705,-13.94 -1.34201,-1.20314 -1.35277,-1.22529 -1.14241,-2.35133 0.38003,-2.03418 1.30655,-10.395 1.30655,-11.79013 0,-0.74757 0.11772,-1.35921 0.26159,-1.35921 0.66096,0 9.88297,6.93143 14.51523,10.90992 4.36386,3.74795 7.43222,6.67448 10.98007,10.47253 14.51018,15.53346 23.60673,33.41428 27.82015,54.68526 1.29298,6.52743 2.50683,16.72406 2.51237,21.10441 0.003,2.14841 0.53069,1.73009 -6.87691,5.44868 -12.95687,6.50429 -26.44366,10.41711 -41.68993,12.09517 -4.61143,0.50755 -21.61691,0.73675 -26.70486,0.35994 z M 31.655506,304.57611 c -3.131894,-0.11571 -9.845921,-0.85359 -14.155208,-1.55568 -12.1380227,-1.97759 -21.3414971,-5.22623 -29.038021,-10.24983 -2.447396,-1.59744 -2.447396,-1.59744 -2.439678,-3.33228 0.04859,-10.92162 3.07559,-27.61401 7.2236633,-39.83483 9.325255,-27.47353 27.4964647,-49.91976 51.6088807,-63.75056 19.081604,-10.94514 43.540412,-16.51972 65.646197,-14.96188 10.74065,0.75691 22.42428,3.04063 30.29479,5.9215 1.71979,0.6295 1.71979,0.6295 1.96267,2.0271 0.17044,0.98074 0.1053,2.98269 -0.2184,6.71197 -0.62679,7.22101 -0.36223,6.61859 -2.48414,5.65647 -6.48239,-2.93926 -14.99511,-5.12934 -23.6018,-6.07208 -3.80879,-0.41719 -14.7455,-0.40293 -18.785412,0.0245 -16.692819,1.76616 -31.587401,6.25691 -45.772917,13.80063 -9.104371,4.84162 -15.490031,9.59675 -22.231276,16.55468 -13.89929,14.34605 -23.8901207,33.52845 -28.68993254,55.08469 -0.86721553,3.89471 -1.99529146,10.22165 -1.99540626,11.19146 -6.54e-5,0.55342 4.0765825,2.67533 8.0146559,4.17165 2.9978512,1.13907 8.5120829,2.67519 12.0103959,3.34579 20.574614,3.94394 46.855441,1.74072 64.403001,-5.39914 2.516156,-1.0238 2.516156,-1.0238 3.560173,-0.12496 1.782821,1.5349 7.027995,4.92587 9.314352,6.02167 1.199388,0.57484 2.180704,1.12907 2.180704,1.23162 0,0.5851 -7.200715,4.20346 -11.813355,5.93621 -15.401192,5.78551 -34.117957,8.37255 -54.993937,7.6013 z m 86.228464,-29.00054 c -0.85899,-0.6237 -2.94846,-2.11787 -4.64328,-3.32039 -1.69481,-1.20251 -3.36168,-2.48475 -3.70416,-2.84942 -0.72765,-0.7748 -1.1585,-0.30168 4.41966,-4.85331 8.92102,-7.27933 14.8298,-14.82142 21.03944,-26.85521 6.80159,-13.18095 11.30223,-27.79285 13.36515,-43.39167 0.57429,-4.34253 0.65747,-16.03063 0.14592,-20.50521 -2.10937,-18.45107 -9.54382,-36.48622 -21.48612,-52.12291 -6.6895,-8.75893 -19.97733,-22.225003 -21.93081,-22.225003 -0.90929,0 -7.379812,4.952643 -13.079361,10.011163 -4.728855,4.197 -9.659154,10.20952 -14.181786,17.29475 -2.559692,4.01006 -7.276586,13.22494 -8.978828,17.54096 -3.362045,8.52444 -6.105136,18.12055 -8.213659,28.73369 -0.294349,1.4816 -0.294349,1.4816 -1.80477,1.81962 -2.417998,0.54112 -8.170503,2.58731 -10.972972,3.90312 -1.420392,0.6669 -2.628564,1.16421 -2.684831,1.10514 -0.174916,-0.18363 1.113708,-8.37412 1.973387,-12.54282 4.77289,-23.14443 13.223687,-41.74447 26.146014,-57.54687 4.528701,-5.53804 11.797538,-12.575555 17.960658,-17.389079 3.050669,-2.382637 11.095038,-7.864983 11.928718,-8.129583 1.05322,-0.334277 9.54111,4.898227 15.65337,9.649784 20.70571,16.096218 35.73405,40.043738 41.50617,66.139708 5.79002,26.17687 1.99588,55.278 -10.40048,79.77188 -4.15617,8.21214 -8.94757,15.4912 -14.52398,22.0647 -3.75319,4.42429 -10.62161,10.89901 -14.88761,14.03426 -1.08404,0.7967 -1.08404,0.7967 -2.64584,-0.3373 z"
         id="path949" />
      <path
         style=";paint-order:normal;fill:#33ff33;fill-opacity:1"
         d="m 149.55284,304.7629 c -13.79233,-0.94152 -26.09067,-4.69512 -38.52233,-11.75748 -23.394166,-13.2901 -44.761024,-36.70371 -55.302371,-60.59985 -3.159141,-7.16144 -6.068737,-16.43375 -7.048082,-22.46084 -0.339267,-2.08792 -0.339267,-2.08792 0.700238,-2.9865 2.454434,-2.1217 11.265308,-7.29867 11.693348,-6.87063 0.07575,0.0757 0.308163,1.12749 0.516483,2.33722 0.615294,3.57304 2.345182,10.11369 3.800705,14.37034 8.08297,23.6385 25.529611,46.39375 46.301129,60.38948 10.4008,7.00799 24.67926,11.48759 41.19859,12.92527 6.16448,0.53649 19.1435,0.3937 24.68266,-0.27156 11.47606,-1.37829 22.21042,-4.24528 30.49323,-8.14427 2.72866,-1.28447 2.60477,-0.81931 1.65715,-6.22163 -3.08411,-17.58235 -9.53656,-32.59854 -20.15435,-46.90333 -4.69703,-6.32807 -11.50476,-13.87317 -18.21373,-20.18655 -2.47386,-2.32798 -4.53245,-4.37321 -4.57464,-4.54495 -0.0422,-0.17175 0.16948,-2.14859 0.47039,-4.39299 0.30091,-2.2444 0.62151,-5.36065 0.71245,-6.92499 0.091,-1.56435 0.26876,-2.84428 0.39514,-2.84428 0.2809,0 5.94533,4.09531 9.43626,6.82229 6.16172,4.81329 13.60167,11.78334 18.41809,17.2548 11.2126,12.73755 18.88224,27.01647 23.44442,43.64752 2.29682,8.37289 4.48226,22.96368 4.48226,29.92519 0,1.26461 0,1.26461 -2.37289,2.62251 -3.46069,1.9804 -9.36316,4.74581 -14.32287,6.71052 -9.82835,3.89335 -20.23537,6.38914 -32.25216,7.73468 -4.44753,0.49799 -20.3933,0.72812 -25.63912,0.37003 z M 31.117381,304.50773 c -17.885159,-1.07421 -32.9033285,-5.23567 -42.941811,-11.89895 -2.208139,-1.46571 -2.208139,-1.46571 -2.038408,-5.16987 0.678359,-14.80429 4.0075902,-30.35717 9.4299608,-44.05313 1.8317855,-4.62677 6.2343768,-13.46403 8.9439755,-17.95312 C 14.558774,208.78631 28.922477,194.82469 45.622683,185.4719 61.059914,176.82644 78.219707,171.97355 97.30088,170.857 c 13.73953,-0.80397 30.04016,1.39548 42.96608,5.79742 2.24896,0.76589 2.24896,0.76589 2.44423,2.06477 0.2654,1.76535 -0.52912,12.56884 -0.95571,12.99544 -0.0845,0.0845 -1.01951,-0.23427 -2.07784,-0.70835 -6.32998,-2.83551 -14.09348,-4.8335 -22.8263,-5.87452 -3.6861,-0.43941 -15.35623,-0.43061 -19.446876,0.0147 -21.991235,2.39378 -42.460703,10.05291 -58.158824,21.76148 -4.276437,3.18962 -11.912706,10.66967 -15.495905,15.17892 -11.614188,14.61576 -19.555884,32.02167 -23.41967012,51.32917 -1.04795902,5.23669 -1.49600738,8.56064 -1.19383148,8.8567 0.48487303,0.47507 5.6049751,2.88837 8.0736408,3.80542 13.8460798,5.14349 33.3563618,6.57475 52.7560488,3.87014 8.782121,-1.22436 16.015623,-3.12062 24.777835,-6.49549 1.229921,-0.47372 1.229921,-0.47372 2.530178,0.61492 2.075543,1.73774 6.125475,4.33103 8.758714,5.60846 1.336582,0.6484 2.430148,1.25077 2.430148,1.33861 0,0.3231 -4.356987,2.73812 -7.421444,4.1136 -10.363782,4.6518 -23.918394,7.81582 -39.012931,9.10669 -4.461418,0.38154 -16.487654,0.53837 -20.911042,0.27269 z m 84.146239,-30.82924 c -4.28535,-3.00216 -6.21749,-4.52039 -6.21749,-4.88556 0,-0.1271 1.09682,-1.09629 2.43738,-2.15375 4.11444,-3.24556 8.63246,-7.35601 10.96494,-9.9758 11.58941,-13.01693 21.62709,-35.61596 25.05591,-56.41132 1.19219,-7.2305 1.34,-9.1001 1.33817,-16.9267 -0.002,-7.82726 -0.22169,-10.40471 -1.45573,-17.06562 -2.79837,-15.10465 -9.78485,-30.58282 -19.82482,-43.92083 -6.66054,-8.84849 -20.37639,-22.886463 -22.36128,-22.886463 -1.68994,0 -14.128614,10.238583 -18.388906,15.136373 -12.539485,14.41585 -20.74231,32.27549 -25.66117,55.87092 -0.420886,2.01895 -0.83039,3.73597 -0.910014,3.81559 -0.07962,0.0796 -1.493287,0.53239 -3.141482,1.00616 -3.260926,0.93735 -7.220204,2.44366 -10.033003,3.81707 -0.983014,0.47998 -1.835436,0.8237 -1.894271,0.76381 -0.178731,-0.18192 1.341856,-9.34682 2.343819,-14.1267 7.175778,-34.23213 24.333822,-60.75545 50.625746,-78.258503 5.786441,-3.852151 4.973631,-3.621234 7.650981,-2.173613 12.03081,6.504942 24.31464,17.290646 33.45624,29.375946 11.63576,15.38261 19.26876,33.19486 22.31615,52.07664 4.21157,26.09512 -1.20853,55.35151 -14.53971,78.48173 -4.88695,8.47909 -9.97425,15.13774 -16.80047,21.98976 -4.21189,4.2278 -10.01979,9.23107 -10.71562,9.23107 -0.15226,0 -2.06268,-1.2511 -4.24537,-2.78021 z"
         id="path947" />
      <path
         style=";paint-order:normal;fill:#33ff33;fill-opacity:1"
         d="M 149.79196,304.7539 C 131.21175,303.52206 114.48772,296.89797 97.669048,284.10893 76.182206,267.77017 59.96969,246.06005 52.189051,223.20684 c -1.438471,-4.22507 -2.943664,-9.92847 -3.499665,-13.26079 -0.348154,-2.08661 -0.348154,-2.08661 0.5694,-2.86652 2.415391,-2.05307 11.402956,-7.40383 11.788489,-7.0183 0.06182,0.0618 0.340333,1.35193 0.618926,2.86691 4.489561,24.41424 20.127217,50.12215 41.209669,67.74766 2.90492,2.42859 7.75339,5.94953 10.74114,7.80017 23.91876,14.81553 66.74377,16.23583 94.74973,3.1424 2.08624,-0.97536 2.08624,-0.97536 1.91848,-2.73679 -0.0923,-0.96878 -0.58464,-3.82028 -1.09418,-6.33667 -5.14449,-25.40643 -16.95992,-44.91102 -40.31234,-66.5465 -2.21223,-2.04958 -2.21223,-2.04958 -1.9113,-4.1076 0.54649,-3.73748 1.07041,-8.88183 1.07565,-10.5618 0.003,-0.9095 0.10954,-1.65365 0.23711,-1.65365 0.62572,0 9.84047,6.97708 14.9816,11.34352 3.72804,3.16629 11.74319,11.24237 14.73818,14.85023 16.01927,19.29728 24.47018,41.86395 26.02396,69.49241 0.18077,3.21428 0.18077,3.21428 -1.76986,4.30649 -14.15991,7.92853 -30.16995,12.89468 -47.45895,14.7213 -4.71228,0.49786 -19.69716,0.71636 -25.00313,0.36459 z M 31.920089,304.50882 c -18.410102,-1.01936 -33.8604608,-5.23859 -43.634868,-11.91593 -2.138048,-1.46059 -2.138048,-1.46059 -2.08348,-4.49791 0.144414,-8.03825 1.916036,-20.00429 4.3473694,-29.36336 0.4347453,-1.67349 1.5407831,-5.3049 2.4578617,-8.0698 13.1660813,-39.69435 43.4880669,-67.7289 83.1087869,-76.83921 17.243901,-3.96503 34.821871,-4.09779 52.244951,-0.39458 3.60107,0.76539 9.94715,2.52899 12.48441,3.46946 1.80309,0.66835 1.80309,0.66835 1.80309,3.91673 0,2.89146 -0.63836,10.64603 -0.89773,10.90541 -0.0551,0.0551 -1.34425,-0.4311 -2.8647,-1.08052 -6.05454,-2.58605 -14.46727,-4.71625 -21.76986,-5.51239 -4.72626,-0.51527 -16.52722,-0.43422 -21.298956,0.14627 -18.299895,2.22624 -35.707687,8.17978 -50.006064,17.10228 -18.506446,11.54844 -32.86151,30.64277 -41.0755964,54.63655 -2.4973093,7.29478 -5.12309934,18.19821 -5.64733153,23.4502 -0.17511337,1.75437 -0.17511337,1.75437 1.60935776,2.7523 6.96359997,3.89427 18.57273417,6.85248 30.54804317,7.78418 4.563179,0.35502 14.758096,0.35602 19.3411,0.002 12.138088,-0.93791 23.3925,-3.30368 32.176511,-6.76378 1.624319,-0.63979 3.024986,-1.16329 3.112592,-1.16329 0.0876,0 0.842209,0.55802 1.676898,1.24004 2.316681,1.89295 6.746843,4.69879 8.942382,5.66366 1.082368,0.47567 1.967942,0.93766 1.967942,1.02664 0,0.21221 -2.751656,1.79659 -5.471301,3.15033 -10.381186,5.16737 -25.763897,8.89473 -41.624533,10.08598 -5.179822,0.38904 -14.859664,0.52289 -19.446875,0.26889 z m 83.831691,-30.5124 c -4.13627,-2.89056 -6.70565,-4.86593 -6.70565,-5.15537 0,-0.11542 1.69664,-1.57262 3.77031,-3.23822 9.96086,-8.0007 16.38104,-16.17584 22.79833,-29.03027 6.47373,-12.96749 10.8588,-27.31437 12.74407,-41.69551 0.57105,-4.35604 0.77407,-13.85471 0.39604,-18.52946 -1.35127,-16.70986 -7.03485,-32.83762 -16.88863,-47.92327 -4.76458,-7.29433 -9.64458,-13.12945 -18.05762,-21.59189 -5.68549,-5.71888 -7.65391,-7.379983 -8.74532,-7.379983 -0.93947,0 -5.543851,3.444673 -11.759887,8.797923 -3.517662,3.0294 -6.250708,5.86263 -9.074457,9.40709 -11.145772,13.9905 -18.619592,31.01614 -23.062451,52.53711 -0.446776,2.16415 -0.864482,4.01923 -0.928233,4.12238 -0.06375,0.10315 -0.805958,0.3418 -1.649346,0.53032 -2.285392,0.51085 -7.157744,2.2423 -10.421959,3.70357 -3.429341,1.53519 -3.202633,1.96111 -2.219238,-4.16933 2.553407,-15.91784 6.647045,-29.17776 12.962777,-41.98844 6.075119,-12.32262 12.336721,-21.11487 21.675772,-30.43611 4.404786,-4.396377 7.051461,-6.721843 11.791093,-10.360085 2.667511,-2.047638 10.736139,-7.490262 11.104219,-7.490262 0.0978,0 1.625,0.829079 3.39371,1.842399 24.38989,13.973301 43.50119,38.816288 51.61024,67.088698 3.09903,10.80484 4.40903,20.39522 4.37208,32.00745 -0.0609,19.15386 -4.30198,37.28793 -12.65412,54.10729 -5.49527,11.06623 -11.63765,19.69481 -19.98234,28.0704 -4.02922,4.04415 -10.0896,9.25622 -10.72173,9.22097 -0.14677,-0.008 -1.83322,-1.10952 -3.74766,-2.4474 z"
         id="path945" />
      <path
         style=";paint-order:normal;fill:#33ff33;fill-opacity:1"
         d="m 152.83467,304.85833 c -14.4386,-0.68499 -24.98365,-3.37965 -37.23943,-9.51609 -10.99699,-5.50617 -21.094379,-12.90026 -31.383583,-22.9815 -10.966101,-10.74445 -18.916341,-21.311 -25.411102,-33.77354 -4.777515,-9.16737 -8.541954,-19.89229 -10.098548,-28.77085 -0.342178,-1.95172 -0.342178,-1.95172 0.566076,-2.71126 2.447012,-2.04633 11.400459,-7.44155 11.741213,-7.07507 0.04929,0.053 0.3438,1.43317 0.654458,3.06701 1.277572,6.71911 3.507584,14.02514 6.280788,20.57729 11.46426,27.08624 34.723718,51.78543 56.795488,60.31103 24.3491,9.40528 58.33157,8.75337 81.93405,-1.57177 3.56875,-1.56119 3.9277,-1.80275 3.81225,-2.5655 -2.08614,-13.78247 -5.12973,-23.77113 -10.54381,-34.60343 -6.69127,-13.38767 -16.14517,-25.32708 -31.31856,-39.55251 -1.9378,-1.81673 -1.9378,-1.81673 -1.52657,-4.62974 0.22618,-1.54715 0.59225,-4.70255 0.81349,-7.01199 0.22124,-2.30945 0.43476,-4.23149 0.47447,-4.27122 0.14251,-0.1425 6.83143,4.75104 10.47154,7.66086 21.2464,16.98387 34.24712,36.18081 40.79149,60.23294 2.36257,8.68302 4.08119,19.97174 4.28668,28.15693 0.0725,2.88893 0.0725,2.88893 -5.48372,5.74651 -15.36478,7.9021 -30.72921,12.0194 -49.2125,13.18779 -3.81598,0.24122 -12.27974,0.28978 -16.40417,0.0941 z M 32.840461,304.48466 c -14.105456,-0.61908 -27.1042434,-3.31382 -36.7824753,-7.62526 -2.9443913,-1.31166 -7.7119637,-4.04655 -9.2211287,-5.28965 -0.897815,-0.73952 -0.897815,-0.73952 -0.586296,-5.3456 1.0579,-15.64191 3.9756286,-29.039 9.2144482,-42.3092 16.0667128,-40.69783 50.7372068,-67.34782 94.1342468,-72.35769 17.032044,-1.96623 36.187164,0.0298 51.103444,5.32521 1.94551,0.69068 1.94551,0.69068 1.94551,3.79716 0,2.61148 -0.6664,10.80866 -0.89749,11.03975 -0.0394,0.0394 -1.13357,-0.38794 -2.43138,-0.94975 -14.03353,-6.075 -32.00257,-7.68664 -50.46342,-4.52607 -16.725667,2.86351 -33.186302,9.33799 -46.178735,18.16355 -7.655608,5.20034 -13.436933,10.67577 -19.947504,18.89207 -11.923753,15.04769 -20.3353645,35.1353 -23.56564915,56.27668 -0.37521785,2.4557 -0.37521785,2.4557 0.37638328,2.99089 0.4133805,0.29435 1.85526127,1.05302 3.20417927,1.68594 6.6802432,3.13437 14.2834276,5.15322 24.0161196,6.37693 4.5793,0.57576 18.412471,0.80684 23.764852,0.39698 12.664604,-0.96978 23.69172,-3.33794 33.286977,-7.14862 2.150785,-0.85416 2.150785,-0.85416 3.836459,0.51185 2.647272,2.14526 5.415923,3.91639 8.21496,5.25519 1.41836,0.67841 2.582945,1.293 2.587972,1.36576 0.02574,0.37253 -5.89561,3.45266 -9.606889,4.99725 -11.412283,4.74966 -26.517827,7.73916 -42.902039,8.49064 -6.280875,0.28807 -6.218193,0.28814 -13.102545,-0.014 z m 82.404029,-30.88122 c -4.53154,-3.21936 -6.19836,-4.50936 -6.19836,-4.79709 0,-0.10975 0.98227,-0.96043 2.18281,-1.8904 10.07968,-7.80796 16.28775,-15.17173 22.62546,-26.83746 7.30486,-13.44595 12.42255,-29.30494 14.51476,-44.97917 0.56258,-4.21467 0.76985,-14.63639 0.38239,-19.22707 -1.66262,-19.69934 -9.80906,-39.48354 -23.10201,-56.10481 -5.96066,-7.45309 -17.15512,-18.82238 -19.97685,-20.288814 -0.74461,-0.386971 -1.0115,-0.252999 -4.20935,2.112944 -6.871455,5.08389 -13.3652,11.127 -17.318962,16.11713 -11.468041,14.47405 -19.011574,31.97997 -23.397278,54.29697 -0.502764,2.55835 -0.159213,2.29084 -4.353052,3.38961 -1.57089,0.41157 -8.002778,2.9236 -9.74107,3.80446 -1.687864,0.85531 -1.644086,1.25753 -0.577836,-5.30917 5.632098,-34.68634 20.196085,-61.355 43.920989,-80.425351 2.773751,-2.229573 8.263887,-6.127043 11.115939,-7.891252 2.4001,-1.484637 2.4001,-1.484637 5.10093,0.02446 24.19406,13.518452 43.72005,38.535163 52.01246,66.638393 5.28133,17.89859 6.08629,36.54172 2.40713,55.74974 -4.54547,23.73083 -15.85532,45.34325 -31.69196,60.56139 -3.27173,3.14395 -8.76257,7.72293 -9.39359,7.83361 -0.17295,0.0303 -2.1091,-1.21982 -4.30255,-2.77812 z"
         id="path943" />
      <path
         style=";paint-order:normal;fill:#33ff33;fill-opacity:1"
         d="m 153.49613,304.87307 c -7.27083,-0.35356 -13.5698,-1.15618 -18.52083,-2.35994 -17.76028,-4.31815 -34.60794,-14.35845 -51.031804,-30.41222 -18.274525,-17.86273 -30.81919,-39.77132 -34.973011,-61.07851 -0.609592,-3.12693 -0.609592,-3.12693 0.165841,-3.77533 1.579742,-1.32094 6.677826,-4.59189 9.237297,-5.92668 2.641037,-1.37733 2.641037,-1.37733 3.33615,2.15393 4.230693,21.49243 16.011755,42.75827 33.177086,59.8875 9.006421,8.98748 17.875991,15.45398 26.330101,19.19635 23.44695,10.37924 57.70614,10.84363 82.41771,1.11719 2.92889,-1.1528 6.54359,-2.76511 6.93633,-3.0939 0.0314,-0.0263 -0.16598,-1.47072 -0.43871,-3.20979 -2.95135,-18.81914 -9.81406,-34.85698 -21.43624,-50.09553 -4.1916,-5.49586 -7.62168,-9.29967 -14.85565,-16.47426 -7.10997,-7.0516 -7.10997,-7.0516 -6.71407,-9.65729 0.34978,-2.30218 1.18647,-10.1497 1.18647,-11.12821 0,-0.39955 1.63564,0.69818 6.61458,4.43925 17.39509,13.07031 29.38232,27.07864 37.45559,43.77078 6.63699,13.72251 10.24499,28.15265 11.50009,45.99445 0.27718,3.94018 0.266,4.21163 -0.18722,4.54785 -1.09621,0.81318 -10.53681,5.46358 -13.97575,6.88439 -10.93618,4.51831 -23.09982,7.50688 -35.45417,8.71098 -4.08578,0.39822 -16.69375,0.70719 -20.76979,0.50899 z M 33.904464,304.47324 c -15.792974,-0.56423 -29.6508799,-3.5648 -39.8197913,-8.62192 -3.4226921,-1.70215 -8.0697917,-4.71431 -8.0697917,-5.23069 0,-1.31377 0.610977,-9.07796 0.947862,-12.04526 6.1522865,-54.18973 41.287888,-94.66929 91.25943,-105.13957 8.260355,-1.73075 13.384522,-2.29163 22.520897,-2.46512 14.26465,-0.27086 26.06921,1.41065 38.664,5.50752 3.24114,1.05429 3.24114,1.05429 3.23588,4.14916 -0.003,1.70219 -0.17912,4.70222 -0.39161,6.66675 -0.2125,1.96454 -0.38872,3.79298 -0.39162,4.06321 -0.003,0.29446 -0.13777,0.43208 -0.33598,0.34346 -11.03662,-4.93444 -21.23437,-7.0345 -34.22105,-7.04727 -26.637172,-0.0262 -55.924751,10.64295 -73.795101,26.88276 -4.778827,4.3428 -10.273339,10.6719 -14.327417,16.50368 -10.0748199,14.4926 -16.8578579,31.77856 -19.92846491,50.78587 -0.41891029,2.59309 -0.46221099,3.34267 -0.2036871,3.52601 0.18057548,0.12807 1.75706934,0.93055 3.50331931,1.78329 6.374243,3.11273 13.8264687,5.17015 22.9397477,6.33321 18.957849,2.41947 41.432827,0.0258 57.054285,-6.07658 3.327148,-1.29971 3.327148,-1.29971 5.322808,0.24245 2.810978,2.17219 5.394277,3.79983 8.192302,5.16166 2.410375,1.17315 2.410375,1.17315 1.678741,1.68657 -1.399008,0.98176 -4.71942,2.68489 -7.860199,4.03172 -12.030258,5.1588 -28.373001,8.46816 -43.803726,8.87013 -2.983177,0.0777 -5.781146,0.17099 -6.217709,0.20729 -0.436562,0.0363 -3.115468,-0.0169 -5.953125,-0.11833 z m 82.549996,-30.03932 c -4.82267,-3.4244 -7.43844,-5.42693 -7.3559,-5.63138 0.0439,-0.1088 1.61543,-1.42862 3.49224,-2.93293 4.40659,-3.532 9.44805,-8.41474 12.14597,-11.76358 10.52343,-13.06237 19.44229,-33.93158 22.78829,-53.32221 1.89696,-10.99323 1.99547,-22.93159 0.27122,-32.86946 -2.78027,-16.02438 -9.7688,-31.86367 -20.11272,-45.58491 -5.98515,-7.93931 -17.8601,-20.39282 -21.48254,-22.529189 -1.12533,-0.66367 -1.12533,-0.66367 -2.0605,-0.111905 -2.59011,1.528204 -11.138079,8.482994 -14.54219,11.831804 -9.813756,9.65433 -18.81052,25.289 -24.191121,42.03958 -1.401609,4.36341 -3.861301,14.02222 -4.660969,18.30287 -0.453549,2.42787 -0.453549,2.42787 -2.601309,3.00645 -3.234257,0.87128 -7.123478,2.29277 -10.151404,3.71029 -2.019462,0.94541 -2.711979,1.16846 -2.711979,0.87348 0,-0.86551 1.127006,-7.62682 2.000628,-12.00247 7.272491,-36.42527 25.015494,-63.45732 53.619614,-81.691264 2.57128,-1.639085 2.57128,-1.639085 5.66912,0.09433 11.8471,6.629095 23.49673,16.962414 32.61382,28.928734 13.01612,17.08385 21.08081,37.61231 23.18554,59.0182 0.82273,8.36743 0.43877,20.45677 -0.93429,29.417 -4.48541,29.27064 -19.29969,55.89836 -39.91563,71.74578 -1.07006,0.82256 -2.02256,1.48383 -2.11667,1.4695 -0.0941,-0.0143 -1.42125,-0.91376 -2.94922,-1.99872 z"
         id="path941" />
      <path
         style=";paint-order:normal;fill:#33ff33;fill-opacity:1"
         d="m 152.17321,304.76725 c -15.75118,-0.80543 -28.4758,-4.54689 -41.81017,-12.29357 -26.446777,-15.36442 -48.742056,-41.90523 -58.016313,-69.06394 -1.998199,-5.85153 -4.232899,-15.34947 -3.696986,-15.71298 0.131374,-0.0891 0.967653,-0.72881 1.858394,-1.42154 2.665939,-2.07332 9.439838,-6.01652 10.335583,-6.01652 0.125444,0 0.375322,0.8632 0.555281,1.91823 0.601644,3.52718 2.164188,9.54959 3.586834,13.82448 8.032282,24.13612 25.975665,47.6335 46.970717,61.50952 10.05924,6.64834 23.07572,10.84074 39.15833,12.61228 5.12094,0.56409 18.88403,0.64464 23.8125,0.13938 12.86461,-1.31886 24.00839,-4.1571 33.13906,-8.44027 1.41883,-0.66557 2.57969,-1.34411 2.57969,-1.50787 0,-1.11346 -1.81951,-10.31498 -2.77522,-14.03468 -3.0234,-11.76729 -7.49798,-21.83279 -14.34203,-32.26219 -5.18008,-7.89374 -9.732,-13.28724 -19.15358,-22.69476 -7.60033,-7.589 -7.60033,-7.589 -7.22702,-10.05417 0.35415,-2.3386 1.16452,-10.06704 1.16452,-11.10593 0,-0.39141 0.37331,-0.2217 1.91823,0.87204 19.853,14.05518 33.09885,28.82017 41.86149,46.66248 5.588,11.37821 8.97764,23.00183 10.87477,37.29137 0.3642,2.74324 1.23426,13.42436 1.10113,13.51791 -0.72839,0.51188 -6.3863,3.49914 -8.77234,4.63161 -13.32227,6.32303 -27.39598,10.04486 -42.88224,11.34031 -4.69729,0.39294 -15.25748,0.54362 -20.24063,0.28881 z M 27.554464,304.0942 c -16.316337,-1.38049 -30.0051401,-5.40193 -39.103351,-11.48763 -1.339928,-0.89626 -2.435314,-1.71126 -2.434192,-1.81112 0.01605,-1.42757 0.890717,-11.7131 1.192969,-14.02846 2.002971,-15.34346 5.7962839,-28.35152 12.01191494,-41.19136 C 7.1355692,219.22791 17.28652,206.44413 31.221174,195.27666 c 3.260691,-2.61317 9.865614,-7.09863 13.398915,-9.09932 17.755627,-10.05388 37.767919,-15.28524 58.472921,-15.28524 12.74735,0 24.86603,1.88063 36.22015,5.62083 3.41182,1.12389 3.41182,1.12389 3.22438,5.62181 -0.10309,2.47385 -0.32872,5.65179 -0.5014,7.06207 -0.31397,2.56416 -0.31397,2.56416 -2.40354,1.64116 -6.53874,-2.88826 -14.53801,-4.92272 -22.74386,-5.78446 -4.93517,-0.51826 -14.20368,-0.52371 -19.507927,-0.0114 -21.988235,2.12347 -44.34885,10.75052 -60.069256,23.17561 -3.61397,2.8564 -10.292948,9.59917 -13.606912,13.73686 -9.922235,12.38854 -16.8832849,26.2338 -21.4008853,42.56552 -1.62060254,5.8587 -3.8313148,17.15316 -3.4714347,17.73546 0.23551758,0.38108 5.9977923,3.10674 8.6442569,4.0889 14.2176001,5.27643 35.6855661,6.56489 55.2674661,3.31702 7.334072,-1.21643 15.316509,-3.35994 20.605149,-5.53305 2.481194,-1.01952 2.481194,-1.01952 5.027083,0.90732 2.86828,2.17083 5.403409,3.74344 8.036658,4.98534 0.984353,0.46424 1.754267,0.95048 1.710918,1.08053 -0.113678,0.34103 -4.417682,2.69335 -7.201683,3.93603 -11.043672,4.92949 -24.865434,8.02912 -41.010417,9.19686 -5.013971,0.36266 -17.326152,0.28541 -22.357292,-0.14026 z m 87.943876,-30.41904 c -2.16627,-1.51763 -4.5051,-3.24596 -5.19741,-3.84073 -1.25874,-1.0814 -1.25874,-1.0814 1.98438,-3.68098 4.11925,-3.30187 7.75597,-6.62521 10.09192,-9.22231 11.60789,-12.90558 21.80575,-35.77444 25.27183,-56.67244 1.50307,-9.06243 1.86178,-18.78282 0.98126,-26.59063 -2.4174,-21.4357 -11.82156,-41.74122 -27.44765,-59.26514 -4.31881,-4.84333 -11.74514,-12.31656 -13.72404,-13.81069 -2.24346,-1.693895 -2.39078,-1.683241 -5.26904,0.38103 -3.495464,2.50692 -10.315949,8.23836 -12.987209,10.91351 -2.481186,2.48479 -6.483993,7.35903 -8.92756,10.87114 -7.379272,10.60613 -12.785331,22.56219 -16.738783,37.01953 -1.016619,3.71766 -3.17324,13.30328 -3.17324,14.10423 0,0.25857 -0.47992,0.50834 -1.389063,0.72291 -2.470089,0.58299 -7.517765,2.35724 -10.549945,3.70829 -1.626206,0.72459 -2.995819,1.27835 -3.043582,1.23059 -0.123547,-0.12355 0.861272,-6.67983 1.49856,-9.97644 1.554062,-8.03895 3.045654,-13.74872 5.529901,-21.16829 7.963275,-23.78354 21.430255,-42.72637 40.63017,-57.150938 4.028155,-3.026283 9.880761,-6.876606 10.452651,-6.876606 1.099,0 10.38175,5.835325 14.96816,9.40929 19.75031,15.390484 34.01193,37.125314 40.70067,62.028214 3.61546,13.46071 4.5597,29.17936 2.66224,44.31771 -3.60982,28.79986 -17.66464,55.95847 -37.56509,72.58832 -5.04689,4.21745 -4.23684,4.12863 -8.75913,0.96043 z"
         id="path939" />
      <path
         style=";paint-order:normal;fill:#33ff33;fill-opacity:1"
         d="m 153.76071,304.74742 c -12.35497,-0.48179 -20.30538,-2.05302 -30.29479,-5.9871 -21.00601,-8.27272 -42.645531,-26.37605 -57.177464,-47.83391 -8.700114,-12.8466 -14.602219,-26.56468 -17.302922,-40.21667 -0.523412,-2.64583 -0.523412,-2.64583 0.46599,-3.54145 1.928431,-1.74562 10.399797,-6.90959 11.335028,-6.90959 0.136096,0 0.466883,1.22039 0.735084,2.71198 2.049023,11.39558 7.089624,24.30388 13.934612,35.68467 5.79153,9.62926 11.351839,16.691 19.670545,24.98214 16.741417,16.68593 31.134977,23.55985 55.458917,26.4855 5.44182,0.65453 20.43373,0.65893 26.06146,0.008 6.85356,-0.79316 13.13382,-1.99844 19.05,-3.65601 6.0478,-1.69444 14.94896,-5.36648 14.94896,-6.16697 0,-1.31018 -1.63241,-9.90785 -2.64577,-13.93486 -3.02286,-12.0126 -9.20509,-25.25116 -16.68334,-35.7255 -5.4006,-7.56431 -12.86171,-15.88058 -21.51607,-23.98215 -2.22529,-2.08316 -3.09514,-3.06361 -2.98127,-3.36036 0.22295,-0.58099 1.14515,-7.94764 1.36671,-10.91744 0.10042,-1.34607 0.23938,-2.44739 0.3088,-2.44739 0.26372,0 6.70112,4.73195 9.80772,7.20938 11.50656,9.17615 20.87642,19.25395 27.66297,29.75302 10.2353,15.83443 16.06793,34.10132 17.63971,55.24489 0.15145,2.03729 0.33174,4.30438 0.40065,5.03798 0.12528,1.33381 0.12528,1.33381 -3.64085,3.30327 -14.88702,7.78499 -27.9935,11.7923 -44.51197,13.60955 -6.01701,0.66195 -14.99953,0.92598 -22.09271,0.64938 z M 28.032897,304.09285 c -18.2713274,-1.53294 -31.7215087,-5.74389 -41.785385,-13.08207 -0.290473,-0.2118 0.491159,-10.26621 1.21701,-15.65484 2.7730122,-20.58649 9.7301317,-39.13789 20.7377556,-55.29793 6.6494934,-9.76197 15.8430204,-19.41311 25.0407284,-26.28714 16.610431,-12.41403 35.30673,-19.6724 57.282292,-22.23843 4.855699,-0.56699 15.863652,-0.78529 20.505212,-0.40665 11.21905,0.91521 21.62956,2.97749 29.76562,5.89646 1.71979,0.617 1.71979,0.617 1.80077,2.73245 0.0445,1.1635 -0.0496,3.48467 -0.20923,5.15816 -0.15961,1.67349 -0.36087,3.89008 -0.44723,4.92574 -0.15703,1.88303 -0.15703,1.88303 -2.48127,0.87496 -13.08186,-5.67392 -28.93545,-7.48954 -46.050298,-5.27389 -13.326877,1.72526 -27.238417,6.02942 -39.396074,12.18893 -10.059393,5.09645 -17.077222,10.15982 -24.222615,17.47664 -14.465753,14.81279 -24.5897144,34.44726 -29.3159673,56.85554 -1.1755075,5.57336 -1.8498092,9.70135 -1.6638587,10.18593 0.21674345,0.56482 6.2100094,3.39861 9.7133756,4.59276 5.8662584,1.99956 12.1260964,3.31186 19.9567734,4.18367 4.931312,0.54903 18.718789,0.62419 23.8125,0.12982 12.385122,-1.20204 23.913997,-3.79572 31.732712,-7.13898 1.834798,-0.78455 1.834798,-0.78455 3.571875,0.61388 2.44888,1.97146 6.345584,4.4378 8.644753,5.47152 1.075409,0.48351 1.955421,0.94718 1.95558,1.03036 5.29e-4,0.24431 -3.612229,2.23609 -6.614295,3.64665 -8.453226,3.97184 -19.635959,6.94173 -32.54375,8.64291 -8.705141,1.14729 -22.461776,1.49048 -31.006984,0.77355 z m 87.098653,-30.7228 c -4.18898,-2.92503 -5.82084,-4.21376 -5.82084,-4.59693 0,-0.098 1.33946,-1.25117 2.97657,-2.56251 6.74649,-5.40402 11.0549,-9.82776 15.13087,-15.53589 11.05412,-15.48059 19.07617,-37.30118 21.35561,-58.08894 0.49684,-4.53109 0.42841,-14.67521 -0.1303,-19.31458 -2.56043,-21.26121 -11.54723,-40.77372 -26.80879,-58.20834 -4.32352,-4.93913 -13.1349,-13.73868 -14.96176,-14.94168 -1.07145,-0.705549 -1.68794,-0.950577 -2.11666,-0.841269 -0.74344,0.189548 -5.357222,3.637909 -9.606485,7.179929 -7.393366,6.16281 -12.63159,12.31627 -18.247149,21.43532 -7.260984,11.79103 -12.325583,25.26563 -15.854807,42.18243 -0.851688,4.08243 -0.851688,4.08243 -4.253891,5.10552 -3.31207,0.99599 -8.032343,2.80844 -10.217582,3.92327 -0.594815,0.30345 -1.118674,0.51366 -1.164126,0.46713 -0.141023,-0.14437 0.889052,-6.75344 1.745159,-11.1971 4.045712,-20.99948 12.003683,-39.66892 23.289149,-54.63646 6.214261,-8.24178 13.798939,-15.798179 22.380477,-22.29705 3.048225,-2.308445 9.604455,-6.687455 10.381825,-6.934181 1.26585,-0.401765 11.93109,6.457831 18.27273,11.75252 8.20791,6.852861 15.67653,15.239731 21.80883,24.490171 3.51332,5.29976 4.82857,7.57409 7.57398,13.09687 5.85527,11.77872 9.60463,24.44422 11.23956,37.96771 0.56491,4.67267 0.79378,15.94171 0.4251,20.93088 -1.77525,24.0238 -9.83586,46.17875 -23.27706,63.97808 -5.3357,7.06573 -12.4054,14.20022 -18.82875,19.00132 -0.92604,0.69216 -0.92604,0.69216 -5.29166,-2.35622 z"
         id="path937" />
    </g>
  </g>

      <animate attributeType="XML" attributeName="opacity" values="0.5;1;0.5" dur="6.0s" repeatCount="indefinite"></animate>
</svg>
